<svg xmlns="http://www.w3.org/2000/svg" id="Layer_1" data-name="Layer 1" viewBox="0 0 200 200"><defs><style>.cls-1{fill:#1b75bb;}</style></defs><title>icon</title><path class="cls-1" d="M89.55,39.44a7.69,7.69,0,0,0-7,0Q57.72,51.06,32.81,62.62c-2.56,1.19-4.39,2.89-4.36,5.93s1.88,4.7,4.45,5.87c4.41,2,8.76,4.16,13.2,6.09a2.86,2.86,0,0,1,2,3.13c-.08,11.08,0,22.16-.07,33.24a7,7,0,0,0,3.3,6.48,63,63,0,0,0,30.5,9.58c13.82.83,26.67-2.46,38.85-8.88a7.7,7.7,0,0,0,4.59-7.49c-.07-11.27,0-22.54,0-33.81,0-.69.11-1.77.55-2,1.67-1,3.5-1.71,5.55-2.68V80.5c0,6.41,0,12.81,0,19.21,0,3.91,2.5,6.36,6.19,6.3a6.08,6.08,0,0,0,6-6.34c0-9.92-.1-19.85.07-29.77.07-3.65-1.32-5.87-4.56-7.36Q114.32,51.07,89.55,39.44Zm20.17,76c-16.34,7.82-32.64,7.48-48.89-.25a2.15,2.15,0,0,1-1.08-1.5c-.06-8.58,0-17.16,0-26.07l18.13,8.59c1.33.63,2.69,1.19,4,1.91a7.34,7.34,0,0,0,7.3,0c6.66-3.22,13.36-6.34,20-9.5.55-.27,1.13-.49,1.87-.81.07.7.16,1.18.16,1.67,0,7.88,0,15.75,0,23.63A2.23,2.23,0,0,1,109.72,115.4Zm10.87-45.53C109.74,74.93,98.89,80,88,85a3.81,3.81,0,0,1-2.78,0c-8.9-4-17.73-8.15-26.64-12.14-2.41-1.08-5-1.74-7.52-2.62a24.74,24.74,0,0,1-2.31-1.14l16.47-7.71c6.3-2.94,12.58-5.92,18.9-8.81a3.14,3.14,0,0,1,2.28-.18q17.53,8.11,35,16.37a2.67,2.67,0,0,1,.42.36A12,12,0,0,1,120.59,69.87Z"></path><path class="cls-1" d="M199,168.5h0c-3.48-8.63-10.41-14.07-16.73-18.26-4.86-3.21-9.72-6.66-14.43-10-1.76-1.25-3.53-2.51-5.31-3.76l.16-.27A88.12,88.12,0,0,0,169.76,55a87.8,87.8,0,0,0-62-52.83c-2.62-.61-5.31-1-7.91-1.3C98.56.7,97.32.54,96.08.35c-.35,0-.7-.13-1-.2L94.47,0,82.69,0l-.23,0c-1.26.2-2.53.38-3.8.56-2.73.39-5.55.8-8.31,1.36C36,8.92,7.69,38,1.52,72.66c-.41,2.3-.74,4.64-1,6.9L0,82.74,0,94.48l0,.23c.2,1.29.38,2.58.56,3.87.39,2.78.79,5.65,1.36,8.47,6.8,33.47,35,61.46,68.47,68.06,23.77,4.68,46.09.46,66.35-12.55.44.63.87,1.24,1.29,1.86l2.73,4q6.16,9,12.3,18c4.61,6.78,9.94,11,16.21,12.84a10.56,10.56,0,0,0,1.61.44,16.62,16.62,0,0,0,3.17.3,17.87,17.87,0,0,0,3.14-.28l.47,0,.28-.11a29,29,0,0,0,10.52-4.86,21.89,21.89,0,0,0,3.1-2.48c3.65-3.19,5.59-6.22,7.43-11.57A19.12,19.12,0,0,0,199,168.5ZM161.8,88.89c-.08,40.47-33,73.4-73.29,73.42h0a72.81,72.81,0,0,1-51.66-21.54,72.34,72.34,0,0,1-21.62-51.5,73.65,73.65,0,0,1,73.69-74h0a72,72,0,0,1,51.31,21.58A73.24,73.24,0,0,1,161.8,88.89ZM148.9,153c1.22-1,2.37-2.07,3.58-3.18l.67-.62c2,1.4,4,2.78,6.07,4.17,5.94,4.07,12.08,8.28,18,12.57a26.64,26.64,0,0,1,5.93,6.49,4.62,4.62,0,0,1-.44,6.27,31.64,31.64,0,0,1-6.33,5.09,4.84,4.84,0,0,1-6.06-.74,36.14,36.14,0,0,1-5.15-5.72c-3-4.3-6.08-8.72-9-13-2.41-3.49-4.81-7-7.24-10.46a2.68,2.68,0,0,1-.32-.55A2,2,0,0,1,148.9,153Z"></path></svg>