<svg xmlns="http://www.w3.org/2000/svg" id="Layer_1" data-name="Layer 1" viewBox="0 0 170 200"><defs><style>.cls-1{fill:#1b75bb;}</style></defs><title>icon</title><path class="cls-1" d="M159.93,159.57c-2.67-9-5.42-18.3-8.42-27.36-1-3-.63-4.77,1.38-7.22A74.48,74.48,0,0,0,170,78.17a75.71,75.71,0,0,0-22.6-55.69A78,78,0,0,0,90.21,0C51.84.92,19.4,30.65,16.35,67.71A85.31,85.31,0,0,1,5,104.25c-.67,1.17-1.29,2.38-1.92,3.61-3.49,6.79-4,12.78-1.57,17.33s7.77,7.39,15.36,8.23a3.26,3.26,0,0,1,.73.26l.29.12v4.81c0,4.13,0,8.3,0,12.47.06,12.41,7.89,20.2,20.42,20.33,4.53.05,9,0,13.71,0h5.78l1.86,6.28c1.55,5.22,3,10.27,4.56,15.31,1.07,3.59,2.22,5.43,3.93,6.35A5.68,5.68,0,0,0,71,200a16.52,16.52,0,0,0,4.63-.85q39.89-12,79.75-24.05c6.47-2,7.86-4.53,5.94-11ZM38,148.64c8.55-1.13,14.94-4.18,19-9.06a6.06,6.06,0,0,0-.82-8.56,6.16,6.16,0,0,0-8.61.82c-3.07,3.71-10.22,5.06-16.24,5.11,0-.73,0-1.47,0-2.2,0-2,0-4.11,0-6.17-.08-3.28-.8-5.44-2.28-6.79s-3.37-1.79-6.14-1.63c-4.24.25-8.45.39-9.26-.94s1.37-5.74,3.45-9.33c.74-1.27,1.39-2.61,2-3.91.46-1,.94-2,1.45-2.89,5.55-10.35,8.19-19.41,8.55-29.37,1.11-30.77,24.37-56,55.3-60.07A63.84,63.84,0,0,1,152.86,55.8c7.94,23,3.83,44.11-12.24,62.8-4.17,4.86-5,9-3,14.21,1.14,2.9,2,6,2.93,9.24.44,1.56.89,3.18,1.41,4.87l5.15,16.9-31.32,9.3L76,185.19q-.81-2.69-1.64-5.34c-1.46-4.73-3-9.62-4.23-14.46C68.76,160.29,65.93,158,61,158l-1,0c-4.49.26-9.09.2-13.53.14l-5.24-.06c-4.79,0-7.14-.51-8.36-1.77s-1.58-3.21-1.55-7.21A54.59,54.59,0,0,0,38,148.64Z"></path><path class="cls-1" d="M80.46,88.82l13.45,7.8c-.14,1.95-.33,3.62-.37,5.29a16.91,16.91,0,0,0,12.16,16.76,17.47,17.47,0,0,0,19.72-8,17.19,17.19,0,0,0-2.81-20.51c-5.65-5.55-14.61-7-20.93-2.3-3.64,2.7-6,2.17-9.29.12-4.9-3-10.63-4.86-8.7-12.86.57-2.39.35-4.3,2.93-5.42a30.39,30.39,0,0,0,5.28-3c3.42-2.37,6.13-3.14,10.17-.06,5.84,4.46,14.69,3,20.17-2.07a17.37,17.37,0,0,0,3.44-20.46,17.09,17.09,0,0,0-19-8.56c-7.1,1.51-13.62,7.85-12.91,14.84s-2.49,9.58-7.7,11.9c-2,.88-3.82,2.14-6,3.4-9.58-7.38-18.34-7.46-25.29-.4a16.77,16.77,0,0,0-1.08,22.57C60,95.62,68.9,96,80.46,88.82Zm30.38,3.06a10.38,10.38,0,1,1-10.7,10.1A10.66,10.66,0,0,1,110.84,91.88Zm-.52-50a10.45,10.45,0,0,1,10.65,10,10.42,10.42,0,0,1-20.83.48A10.49,10.49,0,0,1,110.32,41.86ZM56.72,77.14A9.91,9.91,0,0,1,67.06,67.06a10,10,0,0,1,10.23,10.2,10.29,10.29,0,0,1-20.57-.12Z"></path></svg>