<svg xmlns="http://www.w3.org/2000/svg" id="Layer_1" data-name="Layer 1" viewBox="0 0 225 200"><defs><style>.cls-1{fill:#1b75bb;}</style></defs><title>icon</title><path class="cls-1" d="M193.68,175.82a1.61,1.61,0,0,1-1.05-1.74c0-2.28,0-4.56,0-6.83,0-2.82,0-5.73.05-8.59a3.71,3.71,0,0,1,.92-2,8.61,8.61,0,0,0-.22-12,8.86,8.86,0,0,0-11.94-.22l-.41.4a3.46,3.46,0,0,1-.53.46c-2.95.07-6,.06-8.88,0h-1.81V120.74h1.89c2.45,0,4.76,0,7.1.07a4.74,4.74,0,0,1,2.57,1c3.83,3.14,8.81,3,12.11-.35a8.58,8.58,0,0,0,0-12,8.91,8.91,0,0,0-12.14-.16l-.08.06a3.69,3.69,0,0,1-1.05.75c-2.83.07-5.72.06-8.52,0h-1.85V85.5h2.25c2.31,0,4.71,0,7,.05a3.75,3.75,0,0,1,2.11.83c3.88,3.32,8.94,3.21,12.3-.27a8.65,8.65,0,0,0,.07-11.86A8.78,8.78,0,0,0,181.32,74c-.26.23-.87.77-1.11.78-2.81.07-5.6.07-8.56.06h-2v-14H156.58V58c0-2.75,0-5.37,0-8,0-2.05.54-2.56,2.7-2.56,1.33,0,2.65,0,4,0,2.52,0,5.14,0,7.71,0h.29c2.89-.09,4.56,0,5.33,2.46a2.65,2.65,0,0,0,.82,1.13l.19.18a12.85,12.85,0,0,0,9.52,3.89,13.3,13.3,0,0,0,9.66-4.44,12.62,12.62,0,0,0,3.2-9.74,12.77,12.77,0,0,0-5.08-9,13.21,13.21,0,0,0-10.28-2.47,12.67,12.67,0,0,0-8.57,5.8c-.76,1.22-1.22,1.62-2.45,1.58-2.61-.08-5.26-.07-7.82-.06-2.22,0-4.52,0-6.77,0a3.71,3.71,0,0,1-2.1-.85,8.91,8.91,0,0,0-12.13.23c-3.28,3.27-3.32,8.32-.09,12l.23.26a5.51,5.51,0,0,1,.54.65c.06,3.16.05,6.39.05,9.52v2H120.74c0-.83,0-1.66,0-2.49,0-2.53,0-5.15,0-7.72a4.19,4.19,0,0,1,1-2.29,8.64,8.64,0,0,0-.28-12,8.76,8.76,0,0,0-12-.13,8.55,8.55,0,0,0-.54,12c.14.16.31.32.47.48a3.7,3.7,0,0,1,.44.46c.07,3.26.06,6.58.05,9.78v2H85.21c0-.77,0-1.55,0-2.32,0-2.5-.07-5.08,0-7.6a5.08,5.08,0,0,1,1.08-2.76c2.82-3.48,3-7.83.48-10.58-1.62-1.76-1.7-3.53-1.63-5.65,0-.75,0-1.51,0-2.26A24.2,24.2,0,0,1,85.23,26a2.83,2.83,0,0,1,1.06-1.78,12.85,12.85,0,0,0,6.36-13.51A13.18,13.18,0,0,0,81.46.09,13,13,0,0,0,68,7.6c-2.25,4.85-1.64,11.7,3.28,14.75,3.38,2.11,3.28,4.56,3.15,8,0,.53,0,1.05,0,1.58a11.91,11.91,0,0,1,0,2.17,4.52,4.52,0,0,1-.87,2.2,8.6,8.6,0,0,0,0,11.78c.1.12.21.23.33.35l.49.53c.07,3.22.06,6.41,0,9.78v2.08H58.81v14H55.07c-2.18,0-4.42,0-6.62-.06-.1,0-.41-.08-1.16-.74C43.56,70.78,39,70.75,35.22,74a3.7,3.7,0,0,1-2.1.82c-4.58.07-9.25.06-13.75,0H8.62l-.25.62c-.06.16-.12.28-.16.37a1.73,1.73,0,0,0-.2.75l0,3c0,2.9-.07,5.91,0,8.87a1.87,1.87,0,0,1-1.25,2.06A12.54,12.54,0,0,0,.2,103.66a13.06,13.06,0,0,0,25.33,1.68,12.89,12.89,0,0,0-6-15,2.67,2.67,0,0,1-1-.87A24.16,24.16,0,0,1,18.46,86c0-.18,0-.36,0-.54h3.07c4.33,0,8.42,0,12.54.05a2.69,2.69,0,0,1,1.37.77c3.76,3.29,8.38,3.31,12.06,0a3.58,3.58,0,0,0,.29-.27c.18-.17.51-.48.58-.52,2.92-.06,5.9-.06,8.78,0H59V110l-2.17,0c-2.2,0-4.47.07-6.69,0a5.35,5.35,0,0,1-2.81-1,8.91,8.91,0,0,0-12.11.65,8.61,8.61,0,0,0,12.31,12c.32-.28,1-.87,1.28-.87,2.73-.09,5.43-.08,8.28-.07h2v24.61H57.08c-2.46,0-4.79,0-7.13-.07a4.92,4.92,0,0,1-2.6-1c-3-2.37-7.63-3.32-10.69-.55-1.72,1.56-3.46,1.64-5.73,1.59-.58,0-1.16,0-1.74,0a18.33,18.33,0,0,1-3-.09,2.66,2.66,0,0,1-1.66-.94,13.51,13.51,0,0,0-15.62-6A12.53,12.53,0,0,0,0,149.8a13,13,0,0,0,8.08,12.61c4.72,1.92,11.44,1.32,14.61-3.58,2-3.12,4.32-3.23,7.6-3a10.93,10.93,0,0,0,1.28,0,6.66,6.66,0,0,1,1.5.05,6.06,6.06,0,0,1,2.5.92,8.85,8.85,0,0,0,11.89-.1l.28-.26a5.13,5.13,0,0,1,.62-.52c2.91-.06,5.81-.06,8.88-.05h2v13.53H74.75c0,.84,0,1.68,0,2.51,0,2.69,0,5.24,0,7.82a2.37,2.37,0,0,1-.4,1.7,2.43,2.43,0,0,1-1.74.42c-6.27-.1-11.77-.09-16.81,0-1.89,0-2.77-.2-3.41-1.77a8.58,8.58,0,0,0-2.87-3.23,12.76,12.76,0,0,0-9.74-2.56,13.33,13.33,0,0,0-8.9,5.36,12.61,12.61,0,0,0-2.18,9.73,12.8,12.8,0,0,0,5.58,8.43,13.06,13.06,0,0,0,10.17,1.9,12.68,12.68,0,0,0,8.15-5.95A2.16,2.16,0,0,1,55,192.4c2.53,0,5.11,0,7.6,0,2.85,0,5.79,0,8.68.06a3.13,3.13,0,0,1,2,.94,8.78,8.78,0,0,0,12.44,1.25,8.35,8.35,0,0,0,3-5.78,8.93,8.93,0,0,0-2.25-6.6c-.57-.66-.87-1.11-.87-1.36-.08-3-.07-5.9-.06-9,0-.71,0-1.43,0-2.15H110.3c0,.73,0,1.45,0,2.16,0,2.76,0,5.37-.06,8a4.19,4.19,0,0,1-1,2.3c-3.2,3.78-3.08,8.72.3,12a8.61,8.61,0,0,0,12.39-12c-.11-.13-.24-.26-.37-.39l-.47-.48c-.07-3.23-.06-6.52,0-9.71v-1.95h24.74c0,.72,0,1.43,0,2.14,0,2.76,0,5.37-.06,8a4.19,4.19,0,0,1-.91,2.32c-3.16,3.73-3.05,8.79.26,12a8.81,8.81,0,0,0,12.16.09,8.62,8.62,0,0,0,.28-12l-.3-.34a3.89,3.89,0,0,1-.62-.75c-.07-3.13-.06-6.33-.06-9.42v-2.19c7.67-1.11,12.11-5.68,13.21-13.61h2.4c2.58,0,5,0,7.49.05,1.48,0,2.2.86,2.2,2.46v3.08c0,4.12,0,8.38-.08,12.56a2.35,2.35,0,0,1-.89,1.52,13,13,0,0,0-6.21,14.72A13.3,13.3,0,0,0,187.11,200h.24a13.19,13.19,0,0,0,12.49-9.48A12.7,12.7,0,0,0,193.68,175.82ZM153.4,158.68H70.12V71.21h88.47c0,.59.07,1.14.07,1.7q0,40.26,0,80.51C158.67,157.5,157.49,158.68,153.4,158.68Z"></path><path class="cls-1" d="M212.13,102.27H212A13,13,0,0,0,198.88,115a12.67,12.67,0,0,0,3.77,9.14,13,13,0,0,0,9.22,3.89h0a12.9,12.9,0,1,0,.25-25.79Z"></path><path class="cls-1" d="M92,137.15h44.43V93.2H92Zm34-33.63v23.23H102.64V103.52Z"></path></svg>