<svg xmlns="http://www.w3.org/2000/svg" id="Layer_1" data-name="Layer 1" viewBox="0 0 210 200"><defs><style>.cls-1{fill:#1b75bb;}</style></defs><title>icon</title><path class="cls-1" d="M167.46,181.91q-61.71,0-123.41,0a8,8,0,0,0-2.38.39C37.8,183.52,33.83,189,33.82,193v7H176.71c0-2.94-.07-5.88,0-8.82C176.87,185.57,171.93,181.91,167.46,181.91Z"></path><path class="cls-1" d="M147.55,41.91c-2.18-1.5-4.5-2.83-6.58-4.47-3.35-2.62-6.88-1.63-9.07,1.74-2.73,4.21-5.7,8.28-8.51,12.44-9.86,14.62-19.69,29.26-29.67,44.09-5.87-5.89-11.58-11.58-17.23-17.33-2.32-2.35-5-2.9-7.61-.64a78.61,78.61,0,0,0-7.16,7.43c-2,2.25-1.22,5.27.65,7.15,9.11,9.12,18.07,18.38,27.39,27.28,4.3,4.1,9,3.78,12.26-.8,5.13-7.12,9.87-14.52,14.8-21.79,7-10.38,14.13-20.74,21.14-31.14,3.83-5.69,7.65-11.39,11.29-17.21C150.87,46.08,150.09,43.66,147.55,41.91Z"></path><path class="cls-1" d="M186.38,0H23.62A23.65,23.65,0,0,0,0,23.63V131.2a23.65,23.65,0,0,0,23.62,23.63H78v6.82a10.71,10.71,0,0,0,10.71,10.71h33.24a10.71,10.71,0,0,0,10.71-10.71v-6.82h53.75A23.65,23.65,0,0,0,210,131.2V23.63A23.65,23.65,0,0,0,186.38,0Zm9.42,131.2a9.44,9.44,0,0,1-9.42,9.42H23.62a9.44,9.44,0,0,1-9.42-9.42V23.63a9.44,9.44,0,0,1,9.42-9.42H186.38a9.44,9.44,0,0,1,9.42,9.42Z"></path></svg>