<svg xmlns="http://www.w3.org/2000/svg" id="Layer_1" data-name="Layer 1" viewBox="0 0 227 200"><defs><style>.cls-1{fill:#1b75bb;}</style></defs><title>icon</title><path class="cls-1" d="M221.52,122.08a33.41,33.41,0,0,0,4.62-26c-4.8-22.11-9.92-44.15-15-66.2-1.76-7.64-6.21-10.82-12.71-9.43-5.76,1.23-8.4,6.6-6.74,14,2.69,11.89,5.36,23.8,8.29,35.64a7.92,7.92,0,0,0,3.51,4.61c11.33,6,14.13,15.51,7.33,26.51-6.7,10.83-13.44,21.64-20.45,32.28-1,1.59-4.17,3.48-5.42,3-4.3-1.73-.86-5,.37-7.41a161.61,161.61,0,0,1,16.54-26.67c7.06-9,7.49-16.17,1.33-20.15-5.44-3.51-11-1.41-15.57,5.88-4.72,7.49-9.49,14.94-14.16,22.45-5.23,8.42-10.62,16.74-15.45,25.38-3.53,6.3-4.41,13.12-.37,19.71,8.49,13.88,17,27.74,25.71,41.5a6.42,6.42,0,0,0,4.41,2.82l3.4.05c15.57.17,24.06-18.15,13.89-30l-.26-.29c-6-7-6.32-10.94-1.35-18.91C209.43,141.23,215.4,131.61,221.52,122.08Z"></path><path class="cls-1" d="M38.7,86.8C34.79,80.61,29,78.9,24,82.25s-5.88,9-1.92,15.32c6.66,10.64,13.51,21.18,20,32,1.07,1.8,1.51,5.9.5,6.69-2.89,2.26-4.58-.73-6-3-6.82-10.76-13.66-21.51-20.42-32.3-6.58-10.5-3.72-20.55,7.21-26.09,1.38-.7,3.05-2,3.38-3.39,3.07-12.72,6-25.46,8.71-38.26,1.39-6.62-1.74-11.76-7.15-12.75-6.06-1.11-10.65,2.15-12.2,8.86C11.06,51,6.17,72.73,1.11,94.43c-2.43,10.39-.9,19.89,5,28.86,6,9.17,11.75,18.53,17.5,27.88,4.59,7.47,4.26,11.8-1.16,18l-.25.3c-10.25,11.8-1.72,30.17,13.89,29.94l3.35-.06c1.57,0,3.57-1.93,4.56-3.48,7.49-11.8,14.3-24.06,22.28-35.51,7.28-10.45,6.22-20-.18-30C56.87,115.92,47.87,101.31,38.7,86.8Z"></path><path class="cls-1" d="M173.35,60.59A60.15,60.15,0,0,0,53.06,59.4c-.31,33.24,26.33,60.75,59.21,61.16C145.39,121,173,93.84,173.35,60.59Zm-61.9,49.54c-1.83,4.54-5,3.05-7.91,2.46-36.15-7.42-54.88-46.54-37.4-78,.91-1.64,1.94-3.22,3.41-5.65.78,2.25,1.72,3.57,1.56,4.73-1.29,9.57,3.2,17.5,7.08,25.56a14,14,0,0,0,4.11,5.22c5.58,4,11.36,7.82,17.15,11.57,2.65,1.72,4.42,3.73,3,7-3.29,7.89,0,13.34,6.57,17.27C113.5,102.91,113.14,106,111.45,110.13ZM126,111.38c1.69-2.72,3-4.87,4.32-6.95,3.28-5,6.85-9.79,9.75-15,.77-1.39.25-5-.86-5.7a239,239,0,0,0-22.59-12.51c-2-1-5.2.12-7.77.65-14.55,3-25.51-6.33-24.4-21.37,4.9-.93,4.9-.93,17,4.45-.59-2.32-.66-4.21-1.51-5.64-1.87-3.17-.82-5.13,1.78-7.21,3.16-2.53,6.06-5.4,9-8.2,2.11-2,4.19-3.92,1.16-7-4-4.08-7.93-5.28-11-2.81-1.35,1.1-2.59,2.35-4.06,3.69-1-2.34-2-4.44-3-6.93L99,15.08c-3.33-4.58-6.83-.8-10.86-1a12.25,12.25,0,0,1,2.41-2.32c8-4.34,12.52-4.2,17.06-.23,2.1,1.83,4.82,2.94,7.25,4.38l4.24-9.55,19.77,6.12c-.05.51-.09,1-.13,1.53l-6.41,1.84c4.18,4.82,7.53,10.19,12.24,13.78,6.55,5,8.39,10.94,7.16,18.54-.94,5.83-.31,11.49,3.59,16.08,2.3,2.7,5.46,4.66,8.93,7.52C161.65,89.12,144.63,107.8,126,111.38Z"></path></svg>