<svg xmlns="http://www.w3.org/2000/svg" id="Layer_1" data-name="Layer 1" viewBox="0 0 250 200"><defs><style>.cls-1{fill:#1b75bb;}</style></defs><title>icon</title><path class="cls-1" d="M249.77,135.54c-1-22.86-11.93-39.54-32.35-50l-2.35-1.25c10.06-12.11,14.26-25.6,12.23-41.05-3.36-25.53-28.67-45.59-54.36-43C155.75,2,142.52,10,133.37,24.59A3.08,3.08,0,0,1,130,26.25a65.59,65.59,0,0,0-10,0,3.07,3.07,0,0,1-3.4-1.66C104.8,5.83,84.43-3,62.79,1.11,37.23,6,19.13,31.14,22.52,56.82A52.29,52.29,0,0,0,35,84.34c-1.17.61-2.07,1-2.95,1.53C12.2,96.61,1.18,113.06.22,135.69-.21,145.77.12,155.89.11,166c0,6.07,2.1,8.15,8.24,8.15H52c0,6.27,0,12.12,0,18,0,5.67,2.25,7.89,7.94,7.89h130c5.92,0,8.1-2.16,8.12-8s0-11.67,0-17.82h3.6c13.59,0,27.19,0,40.78,0,5.2,0,7.47-2.29,7.48-7.37C249.88,156.35,250.21,145.93,249.77,135.54ZM189.14,14.77a37.8,37.8,0,0,1,24.57,45c-4.5,17.61-22.7,31-38.66,28.38,4.26-26.33-5.74-45.56-29.08-58.24C151.63,18.78,169.8,8.1,189.14,14.77ZM126,38.83a37.81,37.81,0,0,1-1.54,75.6C103.82,114.16,87,97.07,87.14,76.64A37.91,37.91,0,0,1,126,38.83ZM59.3,15.6c18.88-7.22,37.94,1.83,45,14.36C80.83,42.55,71,61.85,75.17,88.18c-13.09,1.82-32.89-7-38.53-27.11A37.59,37.59,0,0,1,59.3,15.6ZM51.8,161.34H13c0-4.25-.13-8.36,0-12.46.27-7.14-.2-14.47,1.28-21.37,3.49-16.27,13.76-27.06,29.6-32.37a7.24,7.24,0,0,1,5,.44c9.26,4.69,18.93,7,29.35,5.88a3.25,3.25,0,0,1,2.53.87c2,2.61,3.85,5.39,5.8,8.19C65.52,120.84,53.91,137.69,51.8,161.34Zm133.19,24a11.56,11.56,0,0,1-.26,1.59H65.53c-.14-.17-.38-.33-.38-.48.23-10.67-.73-21.54,1-32,2.79-17,13.63-28.16,30.08-33.64a6.44,6.44,0,0,1,4.5.4c16.34,8.51,32.57,8.47,48.86-.12a6.11,6.11,0,0,1,4.22-.27c18.13,5.62,30.27,21.47,31.11,40.87C185.24,169.62,185,177.51,185,185.39ZM236.89,161H198.16c-2-23.39-13.42-40.34-34.86-50.73,2-2.9,3.84-5.67,5.86-8.3a3,3,0,0,1,2.32-.78,50.74,50.74,0,0,0,30.68-6.55,5,5,0,0,1,3.42,0,44.07,44.07,0,0,1,31.23,39.57C237.28,143.07,236.89,152,236.89,161Z"></path></svg>